<?xml version="1.0"?>
<!DOCTYPE svg PUBLIC "-//W3C//DTD SVG 1.1//EN" "http://www.w3.org/Graphics/SVG/1.1/DTD/svg11.dtd">
<svg width="377.4mm" height="17.40000000000001mm" viewBox="0 0 377.4 17.40000000000001" xmlns="http://www.w3.org/2000/svg" version="1.1">
<g id="Pad" transform="translate(188.700000,3.700000) scale(1,-1)">
<path id="Pad_f0000"  d="M -132.0 6.661338147750939e-16 L -132.0 -10.0 L -135.0 -10.0 L -135.0 0.0 L -132.0 6.661338147750939e-16 Z " stroke="#191919" stroke-width="1.0499999999999998 px" style="stroke-width:1.0499999999999998;stroke-miterlimit:4;stroke-dasharray:none;stroke-linecap:square;fill:url(#shape color);fill-opacity:1;fill-rule: evenodd"/>
<path id="Pad_f0001"  d="M -135.0 0.0 L -135.0 -10.0 L -185.0 -10.0 L -185.0 0.0 L -135.0 0.0 Z " stroke="#191919" stroke-width="1.0499999999999998 px" style="stroke-width:1.0499999999999998;stroke-miterlimit:4;stroke-dasharray:none;stroke-linecap:square;fill:url(#shape color);fill-opacity:1;fill-rule: evenodd"/>
<path id="Pad_f0002"  d="M -185.0 0.0 L -185.0 -10.0 L -185.0 -9.99999999999999 L -185.0 1.0036416142611416e-14 L -185.0 0.0 Z " stroke="#191919" stroke-width="1.0499999999999998 px" style="stroke-width:1.0499999999999998;stroke-miterlimit:4;stroke-dasharray:none;stroke-linecap:square;fill:url(#shape color);fill-opacity:1;fill-rule: evenodd"/>
<path id="Pad_f0003"  d="M -185.0 1.0036416142611416e-14 L -185.0 -9.99999999999999 L 185.0 -9.99999999999999 L 185.0 1.0036416142611416e-14 L -185.0 1.0036416142611416e-14 Z " stroke="#191919" stroke-width="1.0499999999999998 px" style="stroke-width:1.0499999999999998;stroke-miterlimit:4;stroke-dasharray:none;stroke-linecap:square;fill:url(#shape color);fill-opacity:1;fill-rule: evenodd"/>
<path id="Pad_f0004"  d="M 185.0 1.0036416142611416e-14 L 185.0 -9.99999999999999 L 185.0 -10.0 L 185.0 0.0 L 185.0 1.0036416142611416e-14 Z " stroke="#191919" stroke-width="1.0499999999999998 px" style="stroke-width:1.0499999999999998;stroke-miterlimit:4;stroke-dasharray:none;stroke-linecap:square;fill:url(#shape color);fill-opacity:1;fill-rule: evenodd"/>
<path id="Pad_f0005"  d="M 185.0 0.0 L 185.0 -10.0 L 135.0 -10.0 L 135.0 0.0 L 185.0 0.0 Z " stroke="#191919" stroke-width="1.0499999999999998 px" style="stroke-width:1.0499999999999998;stroke-miterlimit:4;stroke-dasharray:none;stroke-linecap:square;fill:url(#shape color);fill-opacity:1;fill-rule: evenodd"/>
<path id="Pad_f0006"  d="M 135.0 0.0 L 135.0 -10.0 L 132.0 -10.0 L 132.0 6.661338147750939e-16 L 135.0 0.0 Z " stroke="#191919" stroke-width="1.0499999999999998 px" style="stroke-width:1.0499999999999998;stroke-miterlimit:4;stroke-dasharray:none;stroke-linecap:square;fill:url(#shape color);fill-opacity:1;fill-rule: evenodd"/>
<path id="Pad_f0007"  d="M 132.0 6.661338147750939e-16 L -132.0 6.661338147750939e-16 L -132.0 -10.0 L 132.0 -10.0 L 132.0 6.661338147750939e-16 Z " stroke="#191919" stroke-width="1.0499999999999998 px" style="stroke-width:1.0499999999999998;stroke-miterlimit:4;stroke-dasharray:none;stroke-linecap:square;fill:url(#shape color);fill-opacity:1;fill-rule: evenodd"/>
<path id="Pad_f0008"  d="M 10.5 5.351274978693255e-15 M 10.5 5.351274978693255e-15 L 5.250000000000001 7.370385799395997e-15 L -5.249999999999997 7.370385799395997e-15 L -10.5 5.351274978693255e-15 L -5.250000000000004 3.332164157990513e-15 L 5.250000000000001 3.3321641579905127e-15 L 10.5 5.351274978693254e-15 L 10.5 -9.999999999999995 M 10.5 -9.999999999999995 L 5.250000000000001 -9.999999999999993 L -5.249999999999997 -9.999999999999993 L -10.5 -9.999999999999995 L -5.250000000000004 -9.999999999999996 L 5.250000000000001 -9.999999999999996 L 10.5 -9.999999999999995 Z " stroke="#191919" stroke-width="1.0499999999999998 px" style="stroke-width:1.0499999999999998;stroke-miterlimit:4;stroke-dasharray:none;stroke-linecap:square;fill:url(#shape color);fill-opacity:1;fill-rule: evenodd"/>
<path id="Pad_f0009"  d="M 82.6 5.351274978693255e-15 M 82.6 5.351274978693255e-15 L 82.6 5.351274978693255e-15 L 82.6 -9.999999999999995 M 82.6 -9.999999999999995 L 82.6 -9.999999999999995 Z " stroke="#191919" stroke-width="1.0499999999999998 px" style="stroke-width:1.0499999999999998;stroke-miterlimit:4;stroke-dasharray:none;stroke-linecap:square;fill:url(#shape color);fill-opacity:1;fill-rule: evenodd"/>
<path id="Pad_f0010"  d="M -77.4 5.351274978693255e-15 M -77.4 5.351274978693255e-15 L -77.4 5.351274978693255e-15 L -77.4 -9.999999999999995 M -77.4 -9.999999999999995 L -77.4 -9.999999999999995 Z " stroke="#191919" stroke-width="1.0499999999999998 px" style="stroke-width:1.0499999999999998;stroke-miterlimit:4;stroke-dasharray:none;stroke-linecap:square;fill:url(#shape color);fill-opacity:1;fill-rule: evenodd"/>
<path id="Pad_f0011"  d="M 102.6 5.351274978693255e-15 M 102.6 5.351274978693255e-15 L 102.6 5.351274978693255e-15 L 102.6 -9.999999999999995 M 102.6 -9.999999999999995 L 102.6 -9.999999999999995 Z " stroke="#191919" stroke-width="1.0499999999999998 px" style="stroke-width:1.0499999999999998;stroke-miterlimit:4;stroke-dasharray:none;stroke-linecap:square;fill:url(#shape color);fill-opacity:1;fill-rule: evenodd"/>
<path id="Pad_f0012"  d="M -97.4 5.351274978693255e-15 M -97.4 5.351274978693255e-15 L -97.4 5.351274978693255e-15 L -97.4 -9.999999999999995 M -97.4 -9.999999999999995 L -97.4 -9.999999999999995 Z " stroke="#191919" stroke-width="1.0499999999999998 px" style="stroke-width:1.0499999999999998;stroke-miterlimit:4;stroke-dasharray:none;stroke-linecap:square;fill:url(#shape color);fill-opacity:1;fill-rule: evenodd"/>
<path id="Pad_f0013"  d="M 177.6 7.593925488436071e-15 M 177.6 7.593925488436071e-15 L 177.6 7.593925488436071e-15 L 177.6 -9.999999999999993 M 177.6 -9.999999999999993 L 177.6 -9.999999999999993 Z " stroke="#191919" stroke-width="1.0499999999999998 px" style="stroke-width:1.0499999999999998;stroke-miterlimit:4;stroke-dasharray:none;stroke-linecap:square;fill:url(#shape color);fill-opacity:1;fill-rule: evenodd"/>
<path id="Pad_f0014"  d="M -172.4 7.593925488436071e-15 M -172.4 7.593925488436071e-15 L -172.4 7.593925488436071e-15 L -172.4 -9.999999999999993 M -172.4 -9.999999999999993 L -172.4 -9.999999999999993 Z " stroke="#191919" stroke-width="1.0499999999999998 px" style="stroke-width:1.0499999999999998;stroke-miterlimit:4;stroke-dasharray:none;stroke-linecap:square;fill:url(#shape color);fill-opacity:1;fill-rule: evenodd"/>
<path id="Pad_f0015"  d="M 177.6 3.1530333899354452e-15 M 177.6 3.1530333899354452e-15 L 177.6 3.1530333899354452e-15 L 177.6 -9.999999999999996 M 177.6 -9.999999999999996 L 177.6 -9.999999999999996 Z " stroke="#191919" stroke-width="1.0499999999999998 px" style="stroke-width:1.0499999999999998;stroke-miterlimit:4;stroke-dasharray:none;stroke-linecap:square;fill:url(#shape color);fill-opacity:1;fill-rule: evenodd"/>
<path id="Pad_f0016"  d="M -172.4 3.1530333899354452e-15 M -172.4 3.1530333899354452e-15 L -172.4 3.1530333899354452e-15 L -172.4 -9.999999999999996 M -172.4 -9.999999999999996 L -172.4 -9.999999999999996 Z " stroke="#191919" stroke-width="1.0499999999999998 px" style="stroke-width:1.0499999999999998;stroke-miterlimit:4;stroke-dasharray:none;stroke-linecap:square;fill:url(#shape color);fill-opacity:1;fill-rule: evenodd"/>
<path id="Pad_f0017"  d="M -87.4 2.220446049250313e-15 M -87.4 2.220446049250313e-15 L -87.4 2.220446049250313e-15 L -87.4 -9.999999999999998 M -87.4 -9.999999999999998 L -87.4 -9.999999999999998 Z " stroke="#191919" stroke-width="1.0499999999999998 px" style="stroke-width:1.0499999999999998;stroke-miterlimit:4;stroke-dasharray:none;stroke-linecap:square;fill:url(#shape color);fill-opacity:1;fill-rule: evenodd"/>
<path id="Pad_f0018"  d="M -107.4 2.220446049250313e-15 M -107.4 2.220446049250313e-15 L -107.4 2.220446049250313e-15 L -107.4 -9.999999999999998 M -107.4 -9.999999999999998 L -107.4 -9.999999999999998 Z " stroke="#191919" stroke-width="1.0499999999999998 px" style="stroke-width:1.0499999999999998;stroke-miterlimit:4;stroke-dasharray:none;stroke-linecap:square;fill:url(#shape color);fill-opacity:1;fill-rule: evenodd"/>
<path id="Pad_f0019"  d="M 92.6 2.220446049250313e-15 M 92.6 2.220446049250313e-15 L 92.6 2.220446049250313e-15 L 92.6 -9.999999999999998 M 92.6 -9.999999999999998 L 92.6 -9.999999999999998 Z " stroke="#191919" stroke-width="1.0499999999999998 px" style="stroke-width:1.0499999999999998;stroke-miterlimit:4;stroke-dasharray:none;stroke-linecap:square;fill:url(#shape color);fill-opacity:1;fill-rule: evenodd"/>
<path id="Pad_f0020"  d="M 112.6 2.220446049250313e-15 M 112.6 2.220446049250313e-15 L 112.6 2.220446049250313e-15 L 112.6 -9.999999999999998 M 112.6 -9.999999999999998 L 112.6 -9.999999999999998 Z " stroke="#191919" stroke-width="1.0499999999999998 px" style="stroke-width:1.0499999999999998;stroke-miterlimit:4;stroke-dasharray:none;stroke-linecap:square;fill:url(#shape color);fill-opacity:1;fill-rule: evenodd"/>
<path id="Pad_f0021"  d="M 18.1 9.015010959956271e-15 M 18.1 9.015010959956271e-15 L 18.1 9.015010959956271e-15 L 18.1 -9.999999999999991 M 18.1 -9.999999999999991 L 18.1 -9.999999999999991 Z " stroke="#191919" stroke-width="1.0499999999999998 px" style="stroke-width:1.0499999999999998;stroke-miterlimit:4;stroke-dasharray:none;stroke-linecap:square;fill:url(#shape color);fill-opacity:1;fill-rule: evenodd"/>
<path id="Pad_f0022"  d="M -14.9 9.015010959956271e-15 M -14.9 9.015010959956271e-15 L -14.9 9.015010959956271e-15 L -14.9 -9.999999999999991 M -14.9 -9.999999999999991 L -14.9 -9.999999999999991 Z " stroke="#191919" stroke-width="1.0499999999999998 px" style="stroke-width:1.0499999999999998;stroke-miterlimit:4;stroke-dasharray:none;stroke-linecap:square;fill:url(#shape color);fill-opacity:1;fill-rule: evenodd"/>
<path id="Pad_f0023"  d="M 18.1 1.6875389974302388e-15 M 18.1 1.6875389974302388e-15 L 18.1 1.6875389974302388e-15 L 18.1 -9.999999999999998 M 18.1 -9.999999999999998 L 18.1 -9.999999999999998 Z " stroke="#191919" stroke-width="1.0499999999999998 px" style="stroke-width:1.0499999999999998;stroke-miterlimit:4;stroke-dasharray:none;stroke-linecap:square;fill:url(#shape color);fill-opacity:1;fill-rule: evenodd"/>
<path id="Pad_f0024"  d="M -14.9 1.6875389974302388e-15 M -14.9 1.6875389974302388e-15 L -14.9 1.6875389974302388e-15 L -14.9 -9.999999999999998 M -14.9 -9.999999999999998 L -14.9 -9.999999999999998 Z " stroke="#191919" stroke-width="1.0499999999999998 px" style="stroke-width:1.0499999999999998;stroke-miterlimit:4;stroke-dasharray:none;stroke-linecap:square;fill:url(#shape color);fill-opacity:1;fill-rule: evenodd"/>
<path id="Pad_f0025"  d="M -132.0 6.661338147750939e-16 L -135.0 0.0 L -185.0 0.0 L -185.0 1.0036416142611416e-14 L 185.0 1.0036416142611416e-14 L 185.0 0.0 L 135.0 0.0 L 132.0 6.661338147750939e-16 L -132.0 6.661338147750939e-16 Z M 10.5 5.351274978693255e-15 M 10.5 5.351274978693255e-15 L 5.250000000000001 7.370385799395997e-15 L -5.249999999999997 7.370385799395997e-15 L -10.5 5.351274978693255e-15 L -5.250000000000004 3.332164157990513e-15 L 5.250000000000001 3.3321641579905127e-15 L 10.5 5.351274978693254e-15 Z M 82.6 5.351274978693255e-15 M 82.6 5.351274978693255e-15 L 82.6 5.351274978693255e-15 Z M -77.4 5.351274978693255e-15 M -77.4 5.351274978693255e-15 L -77.4 5.351274978693255e-15 Z M 102.6 5.351274978693255e-15 M 102.6 5.351274978693255e-15 L 102.6 5.351274978693255e-15 Z M -97.4 5.351274978693255e-15 M -97.4 5.351274978693255e-15 L -97.4 5.351274978693255e-15 Z M 177.6 7.593925488436071e-15 M 177.6 7.593925488436071e-15 L 177.6 7.593925488436071e-15 Z M -172.4 7.593925488436071e-15 M -172.4 7.593925488436071e-15 L -172.4 7.593925488436071e-15 Z M 177.6 3.1530333899354452e-15 M 177.6 3.1530333899354452e-15 L 177.6 3.1530333899354452e-15 Z M -172.4 3.1530333899354452e-15 M -172.4 3.1530333899354452e-15 L -172.4 3.1530333899354452e-15 Z M -87.4 2.220446049250313e-15 M -87.4 2.220446049250313e-15 L -87.4 2.220446049250313e-15 Z M -107.4 2.220446049250313e-15 M -107.4 2.220446049250313e-15 L -107.4 2.220446049250313e-15 Z M 92.6 2.220446049250313e-15 M 92.6 2.220446049250313e-15 L 92.6 2.220446049250313e-15 Z M 112.6 2.220446049250313e-15 M 112.6 2.220446049250313e-15 L 112.6 2.220446049250313e-15 Z M 18.1 9.015010959956271e-15 M 18.1 9.015010959956271e-15 L 18.1 9.015010959956271e-15 Z M -14.9 9.015010959956271e-15 M -14.9 9.015010959956271e-15 L -14.9 9.015010959956271e-15 Z M 18.1 1.6875389974302388e-15 M 18.1 1.6875389974302388e-15 L 18.1 1.6875389974302388e-15 Z M -14.9 1.6875389974302388e-15 M -14.9 1.6875389974302388e-15 L -14.9 1.6875389974302388e-15 Z " stroke="#191919" stroke-width="1.0499999999999998 px" style="stroke-width:1.0499999999999998;stroke-miterlimit:4;stroke-dasharray:none;stroke-linecap:square;fill:url(#shape color);fill-opacity:1;fill-rule: evenodd"/>
<path id="Pad_f0026"  d="M -132.0 -10.0 L 132.0 -10.0 L 135.0 -10.0 L 185.0 -10.0 L 185.0 -9.99999999999999 L -185.0 -9.99999999999999 L -185.0 -10.0 L -135.0 -10.0 L -132.0 -10.0 Z M 10.5 -9.999999999999995 M 10.5 -9.999999999999995 L 5.250000000000001 -9.999999999999993 L -5.249999999999997 -9.999999999999993 L -10.5 -9.999999999999995 L -5.250000000000004 -9.999999999999996 L 5.250000000000001 -9.999999999999996 L 10.5 -9.999999999999995 Z M 82.6 -9.999999999999995 M 82.6 -9.999999999999995 L 82.6 -9.999999999999995 Z M -77.4 -9.999999999999995 M -77.4 -9.999999999999995 L -77.4 -9.999999999999995 Z M 102.6 -9.999999999999995 M 102.6 -9.999999999999995 L 102.6 -9.999999999999995 Z M -97.4 -9.999999999999995 M -97.4 -9.999999999999995 L -97.4 -9.999999999999995 Z M 177.6 -9.999999999999993 M 177.6 -9.999999999999993 L 177.6 -9.999999999999993 Z M -172.4 -9.999999999999993 M -172.4 -9.999999999999993 L -172.4 -9.999999999999993 Z M 177.6 -9.999999999999996 M 177.6 -9.999999999999996 L 177.6 -9.999999999999996 Z M -172.4 -9.999999999999996 M -172.4 -9.999999999999996 L -172.4 -9.999999999999996 Z M -87.4 -9.999999999999998 M -87.4 -9.999999999999998 L -87.4 -9.999999999999998 Z M -107.4 -9.999999999999998 M -107.4 -9.999999999999998 L -107.4 -9.999999999999998 Z M 92.6 -9.999999999999998 M 92.6 -9.999999999999998 L 92.6 -9.999999999999998 Z M 112.6 -9.999999999999998 M 112.6 -9.999999999999998 L 112.6 -9.999999999999998 Z M 18.1 -9.999999999999991 M 18.1 -9.999999999999991 L 18.1 -9.999999999999991 Z M -14.9 -9.999999999999991 M -14.9 -9.999999999999991 L -14.9 -9.999999999999991 Z M 18.1 -9.999999999999998 M 18.1 -9.999999999999998 L 18.1 -9.999999999999998 Z M -14.9 -9.999999999999998 M -14.9 -9.999999999999998 L -14.9 -9.999999999999998 Z " stroke="#191919" stroke-width="1.0499999999999998 px" style="stroke-width:1.0499999999999998;stroke-miterlimit:4;stroke-dasharray:none;stroke-linecap:square;fill:url(#shape color);fill-opacity:1;fill-rule: evenodd"/>
<title>b'Pad'</title>
</g>
</svg>